<svg xmlns="http://www.w3.org/2000/svg" viewBox="0 0 800 600">
  <!-- Background Gradient -->
  <defs>
    <linearGradient id="bg4" x1="0%" y1="100%" x2="0%" y2="0%">
      <stop offset="0%" style="stop-color:#ff4d00;stop-opacity:1" />
      <stop offset="50%" style="stop-color:#ff7400;stop-opacity:1" />
      <stop offset="100%" style="stop-color:#ffc100;stop-opacity:1" />
    </linearGradient>
    <radialGradient id="sun">
      <stop offset="0%" style="stop-color:#ffffff;stop-opacity:1" />
      <stop offset="50%" style="stop-color:#ffc100;stop-opacity:0.8" />
      <stop offset="100%" style="stop-color:#ff7400;stop-opacity:0.3" />
    </radialGradient>
  </defs>
  
  <!-- Background -->
  <rect width="800" height="600" fill="url(#bg4)"/>
  
  <!-- Sun -->
  <circle cx="400" cy="200" r="100" fill="url(#sun)"/>
  <circle cx="400" cy="200" r="80" fill="#ffffff" opacity="0.9"/>
  
  <!-- Sun Rays -->
  <g opacity="0.6">
    <line x1="400" y1="80" x2="400" y2="20" stroke="#ffffff" stroke-width="4" stroke-linecap="round"/>
    <line x1="520" y1="120" x2="560" y2="80" stroke="#ffffff" stroke-width="4" stroke-linecap="round"/>
    <line x1="280" y1="120" x2="240" y2="80" stroke="#ffffff" stroke-width="4" stroke-linecap="round"/>
    <line x1="570" y1="200" x2="630" y2="200" stroke="#ffffff" stroke-width="4" stroke-linecap="round"/>
    <line x1="230" y1="200" x2="170" y2="200" stroke="#ffffff" stroke-width="4" stroke-linecap="round"/>
    <line x1="520" y1="280" x2="560" y2="320" stroke="#ffffff" stroke-width="4" stroke-linecap="round"/>
    <line x1="280" y1="280" x2="240" y2="320" stroke="#ffffff" stroke-width="4" stroke-linecap="round"/>
  </g>
  
  <!-- Mountains Silhouette -->
  <g opacity="0.4">
    <path d="M 0 500 L 200 350 L 400 420 L 600 300 L 800 450 L 800 600 L 0 600 Z" fill="#ffffff"/>
  </g>
  
  <!-- Meditation Figure Silhouette -->
  <g transform="translate(400, 460)" opacity="0.7">
    <!-- Head -->
    <circle cx="0" cy="-60" r="25" fill="#ffffff"/>
    <!-- Body -->
    <ellipse cx="0" cy="-20" rx="35" ry="45" fill="#ffffff"/>
    <!-- Legs (lotus position) -->
    <ellipse cx="-30" cy="15" rx="35" ry="20" fill="#ffffff" transform="rotate(-10 -30 15)"/>
    <ellipse cx="30" cy="15" rx="35" ry="20" fill="#ffffff" transform="rotate(10 30 15)"/>
    <!-- Arms -->
    <ellipse cx="-40" cy="-15" rx="15" ry="35" fill="#ffffff" transform="rotate(30 -40 -15)"/>
    <ellipse cx="40" cy="-15" rx="15" ry="35" fill="#ffffff" transform="rotate(-30 40 -15)"/>
  </g>
  
  <!-- Ripple Effects -->
  <g opacity="0.3">
    <ellipse cx="400" cy="520" rx="120" ry="30" fill="none" stroke="#ffffff" stroke-width="2"/>
    <ellipse cx="400" cy="520" rx="180" ry="45" fill="none" stroke="#ffffff" stroke-width="2"/>
    <ellipse cx="400" cy="520" rx="240" ry="60" fill="none" stroke="#ffffff" stroke-width="2"/>
  </g>
  
  <!-- Birds -->
  <g opacity="0.6" fill="#ffffff">
    <path d="M 150 150 Q 145 145 140 150 Q 145 145 150 150" stroke="#ffffff" stroke-width="2" fill="none"/>
    <path d="M 170 140 Q 165 135 160 140 Q 165 135 170 140" stroke="#ffffff" stroke-width="2" fill="none"/>
    <path d="M 630 160 Q 625 155 620 160 Q 625 155 630 160" stroke="#ffffff" stroke-width="2" fill="none"/>
    <path d="M 650 170 Q 645 165 640 170 Q 645 165 650 170" stroke="#ffffff" stroke-width="2" fill="none"/>
  </g>
</svg>
