<svg xmlns="http://www.w3.org/2000/svg" viewBox="0 0 800 600">
  <!-- Background Gradient -->
  <defs>
    <linearGradient id="bg2" x1="0%" y1="0%" x2="100%" y2="100%">
      <stop offset="0%" style="stop-color:#ffc100;stop-opacity:1" />
      <stop offset="50%" style="stop-color:#ff7400;stop-opacity:1" />
      <stop offset="100%" style="stop-color:#ff4d00;stop-opacity:1" />
    </linearGradient>
    <radialGradient id="glow2">
      <stop offset="0%" style="stop-color:#ffffff;stop-opacity:1" />
      <stop offset="100%" style="stop-color:#ffc100;stop-opacity:0" />
    </radialGradient>
  </defs>
  
  <!-- Background -->
  <rect width="800" height="600" fill="url(#bg2)"/>
  
  <!-- Glow Effect -->
  <circle cx="400" cy="300" r="250" fill="url(#glow2)" opacity="0.2"/>
  
  <!-- Lotus Flower Large -->
  <g transform="translate(400, 300)">
    <!-- Outer Petals -->
    <ellipse cx="0" cy="-80" rx="45" ry="90" fill="#ffffff" opacity="0.9" transform="rotate(0)"/>
    <ellipse cx="0" cy="-80" rx="45" ry="90" fill="#ffffff" opacity="0.9" transform="rotate(45)"/>
    <ellipse cx="0" cy="-80" rx="45" ry="90" fill="#ffffff" opacity="0.9" transform="rotate(90)"/>
    <ellipse cx="0" cy="-80" rx="45" ry="90" fill="#ffffff" opacity="0.9" transform="rotate(135)"/>
    <ellipse cx="0" cy="-80" rx="45" ry="90" fill="#ffffff" opacity="0.9" transform="rotate(180)"/>
    <ellipse cx="0" cy="-80" rx="45" ry="90" fill="#ffffff" opacity="0.9" transform="rotate(225)"/>
    <ellipse cx="0" cy="-80" rx="45" ry="90" fill="#ffffff" opacity="0.9" transform="rotate(270)"/>
    <ellipse cx="0" cy="-80" rx="45" ry="90" fill="#ffffff" opacity="0.9" transform="rotate(315)"/>
    
    <!-- Middle Petals -->
    <ellipse cx="0" cy="-50" rx="35" ry="70" fill="#ffffff" opacity="0.95" transform="rotate(22.5)"/>
    <ellipse cx="0" cy="-50" rx="35" ry="70" fill="#ffffff" opacity="0.95" transform="rotate(67.5)"/>
    <ellipse cx="0" cy="-50" rx="35" ry="70" fill="#ffffff" opacity="0.95" transform="rotate(112.5)"/>
    <ellipse cx="0" cy="-50" rx="35" ry="70" fill="#ffffff" opacity="0.95" transform="rotate(157.5)"/>
    <ellipse cx="0" cy="-50" rx="35" ry="70" fill="#ffffff" opacity="0.95" transform="rotate(202.5)"/>
    <ellipse cx="0" cy="-50" rx="35" ry="70" fill="#ffffff" opacity="0.95" transform="rotate(247.5)"/>
    <ellipse cx="0" cy="-50" rx="35" ry="70" fill="#ffffff" opacity="0.95" transform="rotate(292.5)"/>
    <ellipse cx="0" cy="-50" rx="35" ry="70" fill="#ffffff" opacity="0.95" transform="rotate(337.5)"/>
    
    <!-- Center -->
    <circle cx="0" cy="0" r="30" fill="#ffc100" opacity="0.9"/>
    <circle cx="0" cy="0" r="20" fill="#ff7400" opacity="0.8"/>
  </g>
  
  <!-- Floating Particles -->
  <circle cx="200" cy="150" r="4" fill="#ffffff" opacity="0.6"/>
  <circle cx="600" cy="180" r="3" fill="#ffffff" opacity="0.7"/>
  <circle cx="250" cy="450" r="3.5" fill="#ffffff" opacity="0.5"/>
  <circle cx="550" cy="420" r="4" fill="#ffffff" opacity="0.6"/>
  <circle cx="100" cy="300" r="2.5" fill="#ffffff" opacity="0.8"/>
  <circle cx="700" cy="320" r="3" fill="#ffffff" opacity="0.7"/>
</svg>
